<svg xmlns="http://www.w3.org/2000/svg" xmlns:xlink="http://www.w3.org/1999/xlink" width="500" zoomAndPan="magnify" viewBox="0 0 375 374.999991" height="500" preserveAspectRatio="xMidYMid meet" version="1.0"><defs><clipPath id="7bbb7164e9"><path d="M 32 53.097656 L 343 53.097656 L 343 321.597656 L 32 321.597656 Z M 32 53.097656 " clip-rule="nonzero"/></clipPath></defs><rect x="-37.5" width="450" fill="#ffffff" y="-37.499999" height="449.999989" fill-opacity="1"/><rect x="-37.5" width="450" fill="#ffffff" y="-37.499999" height="449.999989" fill-opacity="1"/><g clip-path="url(#7bbb7164e9)"><path fill="#336489" d="M 342.789062 53.597656 C 340.105469 62.765625 337.085938 72.011719 333.300781 80.800781 C 332.039062 83.722656 323.535156 101.355469 321.511719 101.878906 C 320.492188 102.136719 315.308594 98.175781 313.847656 97.375 C 302.515625 91.007812 290.007812 88.207031 277.097656 87.144531 C 274.316406 81.941406 276.15625 73.894531 268.691406 73.195312 C 265.148438 72.855469 256.621094 72.792969 253.199219 73.253906 C 246.792969 74.136719 246.574219 82.78125 243.351562 87.125 C 230.28125 88.207031 220.113281 91.949219 208.824219 98.214844 C 195.710938 105.5 178.058594 118.949219 163.628906 121.894531 C 155.082031 123.632812 146.074219 124.335938 137.425781 126.257812 C 125.878906 128.816406 111.785156 132.519531 104.679688 142.527344 C 105.902344 142.390625 106.523438 141.308594 107.703125 140.769531 C 109.402344 139.96875 117.171875 139.167969 118.269531 139.925781 C 118.371094 140.007812 119.191406 142.347656 119.050781 139.808594 C 130.859375 139.925781 121.695312 148.714844 116.550781 151.457031 C 112.6875 153.519531 107.863281 154.097656 103.519531 153.519531 C 99.476562 152.996094 101.21875 148.234375 102.859375 145.953125 C 102.960938 144.609375 102.320312 145.570312 102.019531 146.03125 C 97.855469 152.558594 97.453125 161.503906 97.835938 169.011719 L 96.933594 168.550781 L 96.933594 169.691406 C 98.675781 170.25 97.59375 173.3125 97.875 175.136719 C 99.136719 183.421875 115.527344 178.359375 121.113281 179.5 C 120.414062 168.46875 126.15625 157.421875 135.707031 151.898438 C 156.542969 139.847656 181.480469 156.121094 180.859375 179.5 L 244.972656 179.5 C 260.804688 178.378906 274.933594 172.191406 287.34375 162.605469 C 291.046875 159.742188 294.269531 156.460938 297.855469 153.476562 L 298.953125 154.238281 C 299.195312 155.179688 294.652344 168.070312 293.851562 170.03125 C 282.460938 198.472656 252.996094 220.3125 222.152344 221.933594 C 190.007812 223.632812 156.363281 220.632812 124.054688 221.890625 C 122.015625 221.871094 120.433594 222.8125 119.351562 224.472656 L 98.714844 321.75 C 79.699219 321.011719 54.679688 325.914062 40.390625 310.160156 C 30.363281 299.113281 31.441406 285.28125 33.664062 271.53125 C 42.773438 215.265625 57.625 158.941406 67.3125 102.675781 C 73.734375 72.714844 102.558594 54.679688 131.863281 53.117188 L 340.328125 53.117188 C 340.328125 53.117188 342.808594 53.597656 342.808594 53.597656 Z M 148.414062 155.417969 C 117.25 158.082031 124.617188 207.722656 156.621094 199.195312 C 181.542969 192.546875 175.976562 153.058594 148.414062 155.417969 Z M 148.414062 155.417969 " fill-opacity="1" fill-rule="nonzero"/></g><path fill="#336489" d="M 257.0625 124.734375 L 261.703125 95.851562 L 262.046875 95.273438 C 262.664062 94.832031 275.414062 94.992188 277.355469 95.070312 C 286.683594 95.511719 297.714844 97.375 306.179688 101.375 C 307.460938 101.976562 314.96875 106.339844 315.347656 107.019531 C 315.769531 107.742188 315.425781 108.761719 315.007812 109.464844 C 314.167969 110.925781 307 116.269531 305.199219 117.429688 C 301.515625 119.832031 291.589844 124.714844 287.40625 124.714844 L 257.082031 124.714844 Z M 257.0625 124.734375 " fill-opacity="1" fill-rule="nonzero"/><path fill="#336489" d="M 253.859375 94.632812 L 248.773438 124.675781 L 196.59375 124.753906 L 193.25 123.535156 C 191.109375 117.167969 202.316406 110.503906 206.902344 107.660156 C 221.414062 98.734375 236.804688 94.992188 253.839844 94.632812 Z M 253.859375 94.632812 " fill-opacity="1" fill-rule="nonzero"/><path fill="#336489" d="M 216.007812 139.328125 L 216.007812 153.457031 L 228.320312 153.457031 L 228.320312 139.328125 L 243.371094 139.328125 L 243.371094 153.457031 L 255.679688 153.457031 L 255.679688 166.6875 L 242.007812 166.6875 L 242.007812 155.28125 L 229.699219 155.28125 L 229.699219 166.6875 L 214.1875 166.6875 L 214.1875 155.28125 L 201.859375 155.28125 L 201.859375 166.6875 L 189.085938 166.6875 L 189.085938 153.457031 L 200.496094 153.457031 L 200.496094 139.328125 Z M 216.007812 139.328125 " fill-opacity="1" fill-rule="nonzero"/><path fill="#336489" d="M 149.335938 165.886719 C 166.007812 164.988281 166.1875 189.566406 150.097656 189.546875 C 135.625 189.527344 135.066406 166.667969 149.335938 165.886719 Z M 149.335938 165.886719 " fill-opacity="1" fill-rule="nonzero"/></svg>