<?xml version="1.0" encoding="UTF-8"?>
<svg id="Layer_2" data-name="Layer 2" xmlns="http://www.w3.org/2000/svg" viewBox="0 0 155.17 134.29">
  <defs>
    <style>
      .cls-1 {
        fill: #0e8fee;
      }
    </style>
  </defs>
  <g id="Layer_1-2" data-name="Layer 1">
    <g>
      <path class="cls-1" d="M155.17.25c-1.34,4.58-2.85,9.2-4.74,13.59-.63,1.46-4.88,10.27-5.89,10.53-.51.13-3.1-1.85-3.83-2.25-5.66-3.18-11.91-4.58-18.36-5.11-1.39-2.6-.47-6.62-4.2-6.97-1.77-.17-6.03-.2-7.74.03-3.2.44-3.31,4.76-4.92,6.93-6.53.54-11.61,2.41-17.25,5.54-6.55,3.64-15.37,10.36-22.58,11.83-4.27.87-8.77,1.22-13.09,2.18-5.77,1.28-12.81,3.13-16.36,8.13.61-.07.92-.61,1.51-.88.85-.4,4.73-.8,5.28-.42.05.04.46,1.21.39-.06,5.9.06,1.32,4.45-1.25,5.82-1.93,1.03-4.34,1.32-6.51,1.03-2.02-.26-1.15-2.64-.33-3.78.05-.67-.27-.19-.42.04-2.08,3.26-2.28,7.73-2.09,11.48l-.45-.23v.57c.87.28.33,1.81.47,2.72.63,4.14,8.82,1.61,11.61,2.18-.35-5.51,2.52-11.03,7.29-13.79,10.41-6.02,22.87,2.11,22.56,13.79h32.03c7.91-.56,14.97-3.65,21.17-8.44,1.85-1.43,3.46-3.07,5.25-4.56l.55.38c.12.47-2.15,6.91-2.55,7.89-5.69,14.21-20.41,25.12-35.82,25.93-16.06.85-32.87-.65-49.01-.02-1.02-.01-1.81.46-2.35,1.29l-10.31,48.6c-9.5-.37-22,2.08-29.14-5.79-5.01-5.52-4.47-12.43-3.36-19.3,4.55-28.11,11.97-56.25,16.81-84.36C20.75,9.8,35.15.79,49.79.01h104.15s1.24.24,1.24.24ZM58.06,51.12c-15.57,1.33-11.89,26.13,4.1,21.87,12.45-3.32,9.67-23.05-4.1-21.87Z"/>
      <path class="cls-1" d="M112.34,35.79l2.32-14.43.17-.29c.31-.22,6.68-.14,7.65-.1,4.66.22,10.17,1.15,14.4,3.15.64.3,4.39,2.48,4.58,2.82.21.36.04.87-.17,1.22-.42.73-4,3.4-4.9,3.98-1.84,1.2-6.8,3.64-8.89,3.64h-15.15Z"/>
      <path class="cls-1" d="M110.74,20.75l-2.54,15.01-26.07.04-1.67-.61c-1.07-3.18,4.53-6.51,6.82-7.93,7.25-4.46,14.94-6.33,23.45-6.51Z"/>
      <polygon class="cls-1" points="91.83 43.08 91.83 50.14 97.98 50.14 97.98 43.08 105.5 43.08 105.5 50.14 111.65 50.14 111.65 56.75 104.82 56.75 104.82 51.05 98.67 51.05 98.67 56.75 90.92 56.75 90.92 51.05 84.76 51.05 84.76 56.75 78.38 56.75 78.38 50.14 84.08 50.14 84.08 43.08 91.83 43.08"/>
      <path class="cls-1" d="M58.52,56.35c8.33-.45,8.42,11.83.38,11.82-7.23-.01-7.51-11.43-.38-11.82Z"/>
    </g>
  </g>
</svg>